<svg xmlns="http://www.w3.org/2000/svg" xmlns:xlink="http://www.w3.org/1999/xlink" width="2000" zoomAndPan="magnify" viewBox="0 0 1500 1499.999933" height="2000" preserveAspectRatio="xMidYMid meet" version="1.0"><defs><g/><clipPath id="ca2c6122a1"><path d="M 0.480469 0.519531 L 570 0.519531 L 570 1168 L 0.480469 1168 Z M 0.480469 0.519531 " clip-rule="nonzero"/></clipPath><clipPath id="b2547025e8"><rect x="0" width="570" y="0" height="1168"/></clipPath><clipPath id="6f928376f5"><path d="M 479 151 L 1003 151 L 1003 1319.078125 L 479 1319.078125 Z M 479 151 " clip-rule="nonzero"/></clipPath><clipPath id="37db365701"><rect x="0" width="524" y="0" height="1169"/></clipPath><clipPath id="6ad9433ace"><path d="M 554.125 89.316406 L 1439.964844 89.316406 L 1439.964844 459.152344 L 554.125 459.152344 Z M 554.125 89.316406 " clip-rule="nonzero"/></clipPath><clipPath id="8352fb5bfc"><rect x="0" width="1440" y="0" height="1320"/></clipPath></defs><g transform="matrix(1, 0, 0, 1, 30, 89)"><g clip-path="url(#8352fb5bfc)"><g clip-path="url(#ca2c6122a1)"><g transform="matrix(1, 0, 0, 1, 0, 0.000000000000113687)"><g clip-path="url(#b2547025e8)"><g fill="#e2a9f1" fill-opacity="1"><g transform="translate(0.49937, 943.20399)"><g><path d="M 499.3125 -621.28125 C 496.976562 -595.539062 495.367188 -570.675781 494.484375 -546.6875 C 493.609375 -522.707031 493.171875 -504.285156 493.171875 -491.421875 C 493.171875 -479.710938 493.460938 -468.59375 494.046875 -458.0625 C 494.628906 -447.539062 495.21875 -438.769531 495.8125 -431.75 L 475.625 -431.75 C 469.769531 -474.457031 460.695312 -508.238281 448.40625 -533.09375 C 436.125 -557.945312 420.1875 -575.492188 400.59375 -585.734375 C 381 -595.972656 358.035156 -601.09375 331.703125 -601.09375 L 295.734375 -601.09375 C 278.765625 -601.09375 265.890625 -599.628906 257.109375 -596.703125 C 248.335938 -593.773438 242.488281 -587.921875 239.5625 -579.140625 C 236.632812 -570.367188 235.171875 -556.914062 235.171875 -538.78125 L 235.171875 -82.484375 C 235.171875 -64.347656 236.632812 -50.890625 239.5625 -42.109375 C 242.488281 -33.335938 248.335938 -27.488281 257.109375 -24.5625 C 265.890625 -21.644531 278.765625 -20.1875 295.734375 -20.1875 L 338.734375 -20.1875 C 365.054688 -20.1875 388.304688 -25.890625 408.484375 -37.296875 C 428.671875 -48.703125 445.929688 -68.148438 460.265625 -95.640625 C 474.597656 -123.140625 485.566406 -160.289062 493.171875 -207.09375 L 513.34375 -207.09375 C 511.59375 -188.375 510.71875 -163.804688 510.71875 -133.390625 C 510.71875 -119.929688 511.007812 -100.914062 511.59375 -76.34375 C 512.175781 -51.769531 513.925781 -26.320312 516.84375 0 C 487.019531 -1.164062 453.382812 -1.894531 415.9375 -2.1875 C 378.5 -2.476562 345.15625 -2.625 315.90625 -2.625 C 301.28125 -2.625 282.5625 -2.625 259.75 -2.625 C 236.9375 -2.625 212.363281 -2.476562 186.03125 -2.1875 C 159.707031 -1.894531 133.085938 -1.601562 106.171875 -1.3125 C 79.265625 -1.019531 53.820312 -0.582031 29.84375 0 L 29.84375 -17.546875 C 48.5625 -18.722656 62.597656 -21.066406 71.953125 -24.578125 C 81.316406 -28.085938 87.609375 -35.101562 90.828125 -45.625 C 94.046875 -56.15625 95.65625 -71.953125 95.65625 -93.015625 L 95.65625 -528.265625 C 95.65625 -549.910156 94.046875 -565.847656 90.828125 -576.078125 C 87.609375 -586.316406 81.171875 -593.335938 71.515625 -597.140625 C 61.867188 -600.941406 47.976562 -603.132812 29.84375 -603.71875 L 29.84375 -621.28125 C 53.820312 -620.695312 79.265625 -620.253906 106.171875 -619.953125 C 133.085938 -619.660156 159.707031 -619.367188 186.03125 -619.078125 C 212.363281 -618.785156 236.9375 -618.640625 259.75 -618.640625 C 282.5625 -618.640625 301.28125 -618.640625 315.90625 -618.640625 C 342.820312 -618.640625 373.390625 -618.785156 407.609375 -619.078125 C 441.835938 -619.367188 472.40625 -620.101562 499.3125 -621.28125 Z M 362.421875 -321.171875 C 362.421875 -321.171875 362.421875 -318.242188 362.421875 -312.390625 C 362.421875 -306.546875 362.421875 -303.625 362.421875 -303.625 L 208.859375 -303.625 C 208.859375 -303.625 208.859375 -306.546875 208.859375 -312.390625 C 208.859375 -318.242188 208.859375 -321.171875 208.859375 -321.171875 Z M 387.875 -437.015625 C 385.53125 -403.660156 384.503906 -378.207031 384.796875 -360.65625 C 385.085938 -343.113281 385.234375 -327.03125 385.234375 -312.40625 C 385.234375 -297.78125 385.523438 -281.691406 386.109375 -264.140625 C 386.691406 -246.585938 388.15625 -221.140625 390.5 -187.796875 L 370.3125 -187.796875 C 367.394531 -208.265625 361.984375 -227.273438 354.078125 -244.828125 C 346.179688 -262.378906 334.921875 -276.566406 320.296875 -287.390625 C 305.671875 -298.210938 286.660156 -303.625 263.265625 -303.625 L 263.265625 -321.171875 C 280.804688 -321.171875 295.71875 -324.828125 308 -332.140625 C 320.289062 -339.453125 330.382812 -349.101562 338.28125 -361.09375 C 346.1875 -373.09375 352.476562 -385.816406 357.15625 -399.265625 C 361.832031 -412.722656 365.34375 -425.304688 367.6875 -437.015625 Z M 387.875 -437.015625 "/></g></g></g></g></g></g><g clip-path="url(#6f928376f5)"><g transform="matrix(1, 0, 0, 1, 479, 151)"><g clip-path="url(#37db365701)"><g fill="#e2a9f1" fill-opacity="1"><g transform="translate(0.354931, 943.450596)"><g><path d="M 249.21875 -632.6875 C 283.738281 -632.6875 310.359375 -629.03125 329.078125 -621.71875 C 347.796875 -614.40625 363.882812 -606.648438 377.34375 -598.453125 C 384.363281 -594.359375 390.066406 -591.285156 394.453125 -589.234375 C 398.835938 -587.191406 403.078125 -586.171875 407.171875 -586.171875 C 413.023438 -586.171875 417.265625 -589.390625 419.890625 -595.828125 C 422.523438 -602.265625 424.722656 -611.914062 426.484375 -624.78125 L 446.65625 -624.78125 C 446.070312 -613.664062 445.34375 -600.359375 444.46875 -584.859375 C 443.59375 -569.359375 443.007812 -549.03125 442.71875 -523.875 C 442.425781 -498.726562 442.28125 -465.675781 442.28125 -424.71875 L 422.09375 -424.71875 C 419.75 -455.144531 412.726562 -484.6875 401.03125 -513.34375 C 389.332031 -542.007812 372.804688 -565.554688 351.453125 -583.984375 C 330.097656 -602.410156 303.914062 -611.625 272.90625 -611.625 C 244.832031 -611.625 221.726562 -603.722656 203.59375 -587.921875 C 185.457031 -572.128906 176.390625 -550.191406 176.390625 -522.109375 C 176.390625 -498.722656 182.238281 -478.691406 193.9375 -462.015625 C 205.632812 -445.347656 222.742188 -429.113281 245.265625 -413.3125 C 267.796875 -397.519531 295.144531 -378.507812 327.3125 -356.28125 C 355.394531 -338.144531 380.550781 -320.007812 402.78125 -301.875 C 425.019531 -283.738281 442.863281 -263.257812 456.3125 -240.4375 C 469.769531 -217.625 476.5 -190.421875 476.5 -158.828125 C 476.5 -120.222656 466.40625 -88.34375 446.21875 -63.1875 C 426.039062 -38.03125 399.570312 -19.160156 366.8125 -6.578125 C 334.050781 5.992188 298.070312 12.28125 258.875 12.28125 C 222.601562 12.28125 193.644531 8.769531 172 1.75 C 150.351562 -5.269531 132.21875 -12.582031 117.59375 -20.1875 C 104.71875 -28.375 94.769531 -32.46875 87.75 -32.46875 C 81.90625 -32.46875 77.664062 -29.25 75.03125 -22.8125 C 72.394531 -16.375 70.203125 -6.722656 68.453125 6.140625 L 48.265625 6.140625 C 49.429688 -7.898438 50.160156 -24.28125 50.453125 -43 C 50.742188 -61.71875 51.035156 -86.140625 51.328125 -116.265625 C 51.628906 -146.398438 51.78125 -184.578125 51.78125 -230.796875 L 71.953125 -230.796875 C 74.296875 -192.179688 80.878906 -156.050781 91.703125 -122.40625 C 102.523438 -88.769531 119.195312 -61.710938 141.71875 -41.234375 C 164.238281 -20.765625 194.222656 -10.53125 231.671875 -10.53125 C 252.140625 -10.53125 270.414062 -14.1875 286.5 -21.5 C 302.59375 -28.8125 315.613281 -39.78125 325.5625 -54.40625 C 335.507812 -69.03125 340.484375 -87.164062 340.484375 -108.8125 C 340.484375 -133.382812 334.78125 -154.738281 323.375 -172.875 C 311.96875 -191.007812 296.460938 -207.972656 276.859375 -223.765625 C 257.265625 -239.566406 234.597656 -255.65625 208.859375 -272.03125 C 181.359375 -290.164062 155.613281 -308.300781 131.625 -326.4375 C 107.644531 -344.570312 88.488281 -365.335938 74.15625 -388.734375 C 59.820312 -412.140625 52.65625 -439.929688 52.65625 -472.109375 C 52.65625 -508.953125 61.867188 -539.21875 80.296875 -562.90625 C 98.722656 -586.601562 123 -604.15625 153.125 -615.5625 C 183.257812 -626.976562 215.289062 -632.6875 249.21875 -632.6875 Z M 249.21875 -632.6875 "/></g></g></g></g></g></g><g clip-path="url(#6ad9433ace)"><path fill="#000000" d="M 1439.699219 151.785156 C 1427.324219 192.472656 1370.320312 281.398438 1272.574219 331.488281 C 1235.1875 350.171875 1195.933594 366.585938 1155.800781 374.492188 C 1140.085938 377.488281 1124.238281 379.105469 1108.582031 378.820312 C 1110.175781 378.457031 1111.792969 378.160156 1113.378906 377.769531 C 1189.714844 358.722656 1262.058594 310.273438 1314.457031 237.207031 C 1338.566406 203.664062 1356.878906 166.265625 1369.007812 127.1875 C 1355.082031 165.703125 1334.382812 201.457031 1309.054688 233.109375 C 1283.648438 264.707031 1253.316406 292.230469 1219.363281 313.671875 C 1178.863281 339.210938 1132.609375 356.714844 1083.957031 361.554688 C 1171.113281 325.320312 1228.632812 254.207031 1248.257812 166.300781 C 1230.382812 230.273438 1188.660156 282.867188 1138.683594 314.949219 C 1112.5625 331.675781 1083.613281 344.0625 1053.84375 351.136719 C 1047.191406 352.714844 1040.449219 353.96875 1033.691406 354.960938 C 1080.839844 336.402344 1118.945312 302.277344 1143.6875 261.933594 C 1177.332031 206.3125 1186.09375 177.636719 1192.222656 107.695312 C 1183.507812 177.0625 1172.152344 206.277344 1136.59375 257.25 C 1113.351562 290.097656 1082.265625 315.40625 1048.257812 331.042969 C 1051.367188 329.097656 1054.535156 327.246094 1057.511719 325.082031 C 1096.863281 296.761719 1114.484375 253.496094 1133.519531 209.101562 C 1112.980469 250.117188 1089.96875 291.792969 1050.960938 315.234375 C 1031.953125 326.699219 1010.527344 333.675781 988.675781 337.921875 C 982.308594 339.152344 975.875 340.085938 969.414062 340.902344 C 1000.019531 326.492188 1028.230469 304.300781 1047.417969 275.601562 C 1066.296875 248.09375 1079.84375 217.671875 1089.585938 186.308594 C 1100.054688 150.945312 1102.992188 121.804688 1101.597656 89.316406 C 1101.742188 121.382812 1097.117188 150.933594 1084.96875 184.785156 C 1073.769531 215.109375 1058.1875 243.882812 1038.457031 268.976562 C 1017.191406 296.785156 985.289062 317.40625 952.101562 328.554688 C 1005.382812 300.222656 1031.542969 256.253906 1035.433594 216.777344 C 1028.582031 257.488281 997.535156 299.742188 938.605469 323.140625 C 1011.226562 272.890625 1032.304688 184.105469 1027.597656 95.917969 C 1028.238281 155.707031 1014.894531 218.355469 977.539062 265.347656 C 944.253906 307.660156 907.726562 324.128906 862.015625 331.160156 C 906.996094 302.472656 943.269531 258.503906 962.054688 206.617188 C 971.257812 181.472656 976.300781 155.070312 977.539062 128.65625 C 975.015625 155 967.90625 180.753906 956.957031 204.523438 C 946.042969 228.3125 931.449219 250.226562 913.796875 269.09375 C 890.695312 293.839844 862.875 313.757812 828.191406 328.3125 C 877.863281 286.828125 904.046875 226.109375 895.894531 147.414062 C 898.960938 215.511719 876.433594 272.617188 823.28125 314.855469 C 818.320312 318.542969 813.238281 322.042969 808.046875 325.359375 C 813.351562 318.953125 818.105469 312.148438 822.183594 305.027344 C 830.929688 289.820312 837.128906 273.4375 841.214844 256.730469 C 845.367188 240.027344 847.742188 223.070312 849.253906 206.113281 C 844 239.65625 833.515625 272.898438 814.394531 300.066406 C 795.183594 327.15625 769.664062 345.105469 735.835938 353.027344 C 735.59375 353.074219 735.402344 353.203125 735.164062 353.261719 C 748.667969 337.945312 759.574219 320.691406 766.515625 301.144531 C 775.25 276.546875 776.601562 249.378906 768.863281 225.144531 C 779.585938 276.898438 752.304688 319.050781 712.859375 354.222656 C 720.367188 336.976562 721.378906 318.515625 722.339844 299.777344 C 706.582031 372.648438 683.609375 372.382812 681.566406 374.523438 C 599.007812 408.4375 554.390625 459.152344 554.390625 459.152344 C 554.390625 459.152344 603.335938 416.355469 687.578125 387.996094 C 712.960938 379.449219 757.742188 360.609375 866.050781 366.386719 C 989.074219 372.945312 1067.707031 435.460938 1162.640625 425.195312 C 1271.890625 413.386719 1353.085938 330.710938 1353.085938 330.710938 C 1320.246094 356.660156 1196.394531 403.820312 1129.710938 400.011719 C 1180.328125 393.75 1234.960938 368.976562 1279.0625 343.367188 C 1354.515625 299.480469 1418.800781 236.144531 1439.699219 151.785156 Z M 1439.699219 151.785156 " fill-opacity="1" fill-rule="nonzero"/></g></g></g></svg>