<svg xmlns="http://www.w3.org/2000/svg" xmlns:xlink="http://www.w3.org/1999/xlink" width="1920" zoomAndPan="magnify" viewBox="0 0 1440 225" height="300" preserveAspectRatio="xMidYMid meet" version="1.0"><defs><clipPath id="98e452f578"><path d="M 0 31.820312 L 1440 31.820312 L 1440 225 L 0 225 Z M 0 31.820312 " clip-rule="nonzero"/></clipPath><clipPath id="62d243b136"><path d="M 0 31.820312 L 685 31.820312 L 685 194 L 0 194 Z M 0 31.820312 " clip-rule="nonzero"/></clipPath></defs><rect x="-144" width="1728" fill="#ffffff" y="-22.5" height="270" fill-opacity="1"/><rect x="-144" width="1728" fill="#ffffff" y="-22.5" height="270" fill-opacity="1"/><g clip-path="url(#98e452f578)"><path fill="#fff1f2" d="M -2.578125 31.820312 C -2.578125 31.820312 82.644531 178.863281 472.492188 182.628906 C 939.25 187.144531 1210.722656 31.820312 1445.273438 104.210938 L 1445.273438 227.886719 L -2.578125 227.886719 Z M -2.578125 31.820312 " fill-opacity="1" fill-rule="nonzero"/></g><g clip-path="url(#62d243b136)"><path fill="#fff1f2" d="M -2.578125 31.820312 L -2.578125 107.628906 C 64.921875 147.359375 265.96875 232.550781 684.890625 173.882812 C 614.230469 180.378906 543.417969 183.273438 472.460938 182.570312 C 82.644531 178.863281 -2.578125 31.820312 -2.578125 31.820312 Z M -2.578125 31.820312 " fill-opacity="1" fill-rule="nonzero"/></g><path fill="#fff1f2" d="M 983.03125 129.839844 C 1033.5625 123.207031 1094.109375 115.359375 1158.714844 107.222656 C 1332.167969 85.359375 1445.386719 135.628906 1445.386719 135.628906 L 1445.386719 104.210938 C 1312.589844 63.265625 1168.066406 95.175781 983.03125 129.839844 Z M 983.03125 129.839844 " fill-opacity="1" fill-rule="nonzero"/></svg>